<?xml version="1.0" encoding="UTF-8"?>
<svg width="498px" height="281px" viewBox="0 0 498 281" version="1.1" xmlns="http://www.w3.org/2000/svg" xmlns:xlink="http://www.w3.org/1999/xlink">
    <!-- Generator: Sketch 45.2 (43514) - http://www.bohemiancoding.com/sketch -->
    <title>logo</title>
    <desc>Created with Sketch.</desc>
    <defs></defs>
    <g id="Page-1" stroke="none" stroke-width="1" fill="none" fill-rule="evenodd">
        <path d="M17,194 C24.6614637,194 31.2799679,198.511394 33.3201924,205.577123 L26.3385363,205.577123 C24.6165708,201.885469 20.9898614,199.651132 17,199.651132 C11.3787607,199.651132 6.6185042,203.981168 6.6185042,210.499597 C6.6185042,217.01722 10.9707158,221.34645 17,221.34645 C21.3073187,221.34645 24.4802886,219.296695 26.0667736,215.832344 L16.6833443,215.832344 L16.6833443,210.499597 L34,210.499597 C33.9094124,220.300213 27.2003207,227 17,227 C7.25341884,227 0,220.300213 0,210.499597 C0,200.699787 7.61576912,194 17,194 Z M63.6846354,227 L57,227 L57,195 L68.1881242,195 C76.1722534,195 81,199.937753 81,206.201293 C81,210.497171 78.7720618,213.972514 74.965522,215.709782 C78.1686961,217.67502 80.2111096,221.148747 80.6757422,226.04042 L80.7676837,227 L74.2693939,227 L74.1766316,226.13177 C73.6192366,220.875505 70.6015871,217.67502 66.0529484,217.67502 L63.6846354,217.67502 L63.6846354,227 Z M63,213 L67.1411545,213 C70.6209395,213 73,210.937552 73,207 C73,203.062448 70.6209395,201 67.1411545,201 L63,201 L63,213 Z M122.363792,222.246564 L108.636208,222.246564 L106.817974,227 L100,227 L112.863481,195 L118.135715,195 L131,227 L124.182026,227 L122.363792,222.246564 Z M111,217 L121,217 L116,204 L111,217 Z M149,217.974793 L155.636402,217.974793 C155.863885,220.254268 157.45466,221.34645 159.682067,221.34645 C161.909474,221.34645 163.363598,220.02616 163.363598,217.974793 C163.363598,215.923426 162.091139,214.737745 157.772976,212.960431 C151.431579,210.339195 149.181665,207.331062 149.181665,202.660072 C149.181665,197.417601 152.999847,194 159.136268,194 C164.818526,194 169.090871,197.371657 169.090871,202.932513 L162.454469,202.932513 C162.454469,200.972228 161.18201,199.651132 159.045435,199.651132 C156.863043,199.651132 155.818067,200.972228 155.818067,202.56899 C155.818067,204.48333 157.136344,205.598886 161.591158,207.513226 C167.955062,210.248113 170,213.11922 170,217.587089 C170,223.217264 166.000153,227 159.590431,227 C153.181512,227 149.36333,223.080237 149,217.974793 Z M192,217.974793 L198.636402,217.974793 C198.863885,220.254268 200.45466,221.34645 202.682067,221.34645 C204.909474,221.34645 206.363598,220.02616 206.363598,217.974793 C206.363598,215.923426 205.091139,214.737745 200.772976,212.960431 C194.431579,210.339195 192.181665,207.331062 192.181665,202.660072 C192.181665,197.417601 195.999847,194 202.136268,194 C207.818526,194 212.090871,197.371657 212.090871,202.932513 L205.454469,202.932513 C205.454469,200.972228 204.18201,199.651132 202.045435,199.651132 C199.863847,199.651132 198.818067,200.972228 198.818067,202.56899 C198.818067,204.48333 200.136344,205.598886 204.591158,207.513226 C210.955062,210.248113 213,213.11922 213,217.587089 C213,223.217264 209.000153,227 202.591234,227 C196.181512,227 192.36333,223.080237 192,217.974793 Z M237,195 L243.691263,195 L243.691263,209.262732 L255.308737,209.262732 L255.308737,195 L262,195 L262,227 L255.308737,227 L255.308737,214.840744 L243.691263,214.840744 L243.691263,227 L237,227 L237,195 Z M301,194 C310.520513,194 318,200.836814 318,210.499597 C318,220.163186 310.520513,227 301,227 C291.480289,227 284,220.163186 284,210.499597 C284,200.836814 291.480289,194 301,194 Z M301.499595,222 C307.323063,222 312,217.51761 312,211.000817 C312,204.483207 307.323063,200 301.499595,200 C295.676937,200 291,204.483207 291,211.000817 C291,217.51761 295.676937,222 301.499595,222 Z M347.480689,218.680679 L347.480689,227 L341,227 L341,195 L351.352229,195 C359.229028,195 364,200.166532 364,206.840744 C364,213.514956 359.229028,218.680679 351.352229,218.680679 L347.480689,218.680679 Z M350.348804,201 L347,201 L347,214 L350.348804,214 C354.601824,214 357,211.61584 357,207.500827 C357,203.384987 354.601824,201 350.348804,201 Z M392.480689,218.680679 L392.480689,227 L386,227 L386,195 L396.352229,195 C404.229028,195 409,200.166532 409,206.840744 C409,213.514956 404.229028,218.680679 396.352229,218.680679 L392.480689,218.680679 Z M396.348536,201 L393,201 L393,214 L396.348536,214 C400.601216,214 403,211.61584 403,207.500827 C403,203.384987 400.601216,201 396.348536,201 Z M431,195 L450.589913,195 L450.589913,200.577203 L437.560587,200.577203 L437.560587,209.172999 L448.495166,209.172999 L448.495166,214.749394 L437.560587,214.749394 L437.560587,221.423605 L451,221.423605 L451,227 L431,227 L431,195 Z M480.684864,227 L474,227 L474,195 L485.187686,195 C493.172088,195 498,199.937753 498,206.201293 C498,210.497171 495.771986,213.972514 491.965316,215.709782 C495.168599,217.67502 497.211083,221.148747 497.675731,226.04042 L497.768497,227 L491.269164,227 L491.176398,226.13177 C490.618984,220.875505 487.601231,217.67502 483.051616,217.67502 L480.684864,217.67502 L480.684864,227 Z M481,213 L485.140698,213 C488.621533,213 491,210.937552 491,207 C491,203.062448 488.621533,201 485.140698,201 L481,201 L481,213 Z M188,257 L196.396226,257 C201.853979,257 204.894176,259.947897 204.894176,263.855631 C204.894176,265.776934 203.893355,267.935957 201.819524,268.863229 C204.306809,269.617096 206,271.776119 206,274.313704 C206,278.667571 203.236259,281 196.844955,281 L188,281 L188,257 Z M193,271 L193,277 L197.351593,277 C200.017705,277 201,275.895818 201,274.018796 C201,272.1409 200.017705,271 197.351593,271 L193,271 Z M196.273833,261 L193,261 L193,267 L196.273833,267 C198.990313,267 200,265.881288 200,263.983501 C200,262.084909 198.990313,261 196.273833,261 Z M233.59296,277.433379 L223.407841,277.433379 L222.058527,281 L217,281 L226.544496,257 L230.456305,257 L240,281 L234.941473,281 L233.59296,277.433379 Z M225,273 L232,273 L228.499604,264 L225,273 Z M254,257 L257.635549,257 L269.06028,272.051289 L269.06028,257 L274,257 L274,281 L270.363636,281 L258.93972,265.913704 L258.93972,281 L254,281 L254,257 Z M307.578546,257 L298.88188,269.41194 L309,281 L302.907593,281 L293.87264,270.438535 L293.87264,281 L289,281 L289,257 L293.87264,257 L293.87264,268.793216 L301.893532,257 L307.578546,257 Z M376.473383,22.840365 C377.011523,22.9225667 377.191173,23.6467638 376.756615,23.9780367 C376.538122,24.1440841 376.24356,24.1087374 375.986224,24.1210677 C375.667386,24.135864 375.349357,24.1588805 375.031328,24.1876511 C373.746265,24.3043775 372.471721,24.5328982 371.220646,24.8526629 C365.919355,26.2106352 355.099088,32.3453491 345.75972,43.7294644 C332.73591,59.6050812 324.247047,78.2772004 320.083539,81.1509723 C318.326692,82.3626256 314.564564,82.5993665 313.667932,79.6779176 C310.409148,69.0549902 319.339853,38.8154459 334.674835,20.8231349 C337.98622,16.9366379 341.853548,13.6000704 345.73868,10.3046037 C357.667597,0.189682878 373.649966,-0.101311187 373.913776,0.0154152462 C374.407409,0.232427769 374.403363,0.971421172 373.908111,1.18350159 C373.638637,1.29940601 364.737873,3.59201179 359.899464,6.23808494 C339.289895,17.5112279 326.037881,45.2411539 322.653665,62.090039 C325.625172,57.8525407 328.738295,53.7153285 332.0602,49.7523839 C337.864025,42.8285336 344.256973,36.277879 351.592678,31.0227235 C355.166255,28.4637842 359.00607,26.2065251 363.112932,24.6562008 C367.341988,23.0598435 371.969187,22.1531586 376.473383,22.840365 Z M317.987773,94.7981749 C315.981273,109.377059 254.771684,110.876802 236.842143,110.75394 C218.395973,110.627801 195.519932,108.575175 176.035638,105.822232 C167.216448,120.241395 157.04283,131.213031 146.269047,133.984812 C145.776749,134.110951 145.531006,133.416368 145.988429,133.194396 C154.698129,128.951538 161.720878,118.056896 167.701446,104.569033 C153.843299,102.350133 142.581273,99.833906 137.306304,97.5486604 C136.800219,97.3299649 136.95837,96.5665782 137.509063,96.5706736 C143.026531,96.6058943 155.583779,95.9170443 171.640641,94.9759162 C186.373895,56.4977869 194.761614,6.20518382 208.899569,20.4826445 C218.338389,30.0151491 228.292216,67.1868388 229.443074,73.8337089 C229.69855,75.3105182 228.300327,76.3409264 227.342495,75.1958463 C222.004265,68.8168168 213.709815,53.3795325 204.780324,29.9332407 C201.306663,47.8662752 193.254712,73.1211055 182.4347,94.3378495 C237.203053,91.1008278 319.149985,86.359148 317.987773,94.7981749 Z" id="logo" fill="#FFFFFF"></path>
    </g>
</svg>