<?xml version="1.0" encoding="UTF-8" standalone="no"?>
<svg width="125px" height="35px" viewBox="0 0 125 35" version="1.1" xmlns="http://www.w3.org/2000/svg" xmlns:xlink="http://www.w3.org/1999/xlink">
    <!-- Generator: Sketch 3.8.3 (29802) - http://www.bohemiancoding.com/sketch -->
    <title>point/logo</title>
    <desc>Created with Sketch.</desc>
    <defs></defs>
    <g id="mocks" stroke="none" stroke-width="1" fill="none" fill-rule="evenodd">
        <g id="Artboard-9" transform="translate(-243.000000, -641.000000)" fill="#FFFFFF">
            <path d="M294.594979,645.525 C294.341528,645.525 294.136647,645.730832 294.136647,645.985843 L294.136647,645.985843 L294.136647,669.752448 C294.136647,670.0066 294.341528,670.212603 294.594979,670.212603 L294.594979,670.212603 L296.591801,670.212603 C296.844055,670.212603 297.049449,670.0066 297.049449,669.752448 L297.049449,669.752448 L297.049449,659.585356 C297.049449,659.330345 297.254844,659.124513 297.508466,659.124513 L297.508466,659.124513 L301.973954,659.124513 C302.829564,659.124513 303.731007,659.019448 304.67931,658.810177 L304.67931,658.810177 C305.627442,658.600734 306.500154,658.240657 307.297788,657.728915 L307.297788,657.728915 C308.095594,657.218205 308.748375,656.520578 309.2575,655.637582 L309.2575,655.637582 C309.765941,654.753898 310.020247,653.638073 310.020247,652.289591 L310.020247,652.289591 C310.020247,651.011268 309.783214,649.935681 309.309148,649.064378 L309.309148,649.064378 C308.834911,648.192559 308.199403,647.495448 307.401597,646.972357 L307.401597,646.972357 C306.603792,646.44875 305.691403,646.07698 304.662037,645.856016 L304.662037,645.856016 C303.632671,645.635568 302.552683,645.525 301.419509,645.525 L301.419509,645.525 M297.049449,655.943664 L297.049449,648.705849 C297.049449,648.451009 297.254844,648.245178 297.508466,648.245178 L297.508466,648.245178 L301.973954,648.245178 C303.430697,648.245178 304.615349,648.576022 305.529277,649.23857 L305.529277,649.23857 C306.441665,649.901117 306.898629,650.929932 306.898629,652.32467 L306.898629,652.32467 C306.898629,653.719581 306.441665,654.748395 305.529277,655.410084 L305.529277,655.410084 C304.615349,656.072803 303.430697,656.404507 301.973954,656.404507 L301.973954,656.404507 L297.508466,656.404507 C297.254844,656.404507 297.049449,656.197988 297.049449,655.943664 M332.493909,648.44052 C332.112536,648.835676 331.921507,649.300646 331.921507,649.835602 L331.921507,649.835602 C331.921507,650.416471 332.107063,650.893306 332.476636,651.264903 L332.476636,651.264903 C332.847064,651.637361 333.320446,651.823074 333.899005,651.823074 L333.899005,651.823074 C334.47705,651.823074 334.951116,651.637361 335.320689,651.264903 L335.320689,651.264903 C335.690433,650.893306 335.875134,650.416471 335.875134,649.835602 L335.875134,649.835602 C335.875134,649.300646 335.684276,648.835676 335.302903,648.44052 L335.302903,648.44052 C334.92153,648.045364 334.453621,647.847786 333.899005,647.847786 L333.899005,647.847786 C333.343876,647.847786 332.875282,648.045364 332.493909,648.44052 M360.841747,649.255765 C360.58898,649.255765 360.383586,649.462457 360.383586,649.717296 L360.383586,649.717296 L360.383586,653.432929 C360.383586,653.687253 360.17802,653.893772 359.925254,653.893772 L359.925254,653.893772 L357.304552,653.893772 C357.05093,653.893772 356.84622,654.099604 356.84622,654.354615 L356.84622,654.354615 L356.84622,655.734221 C356.84622,655.989233 357.05093,656.195752 357.304552,656.195752 L357.304552,656.195752 L359.925254,656.195752 C360.17802,656.195752 360.383586,656.401584 360.383586,656.655907 L360.383586,656.655907 L360.383586,665.15657 C360.383586,665.993826 360.435747,666.755249 360.539555,667.440667 L360.539555,667.440667 C360.643193,668.126773 360.856967,668.702139 361.18122,669.166593 L361.18122,669.166593 C361.50496,669.631563 361.955596,669.991983 362.533471,670.247854 L362.533471,670.247854 C363.111345,670.503382 363.885892,670.631145 364.857454,670.631145 L364.857454,670.631145 C365.365895,670.631145 365.903067,670.584889 366.469483,670.492204 L366.469483,670.492204 C366.913962,670.419123 367.326974,670.309931 367.706808,670.165487 L367.706808,670.165487 C367.890996,670.095845 368.007803,669.913227 367.999594,669.715134 L367.999594,669.715134 L367.937172,668.226163 C367.924003,667.920081 367.622325,667.705823 367.335183,667.80745 L367.335183,667.80745 C367.138682,667.877264 366.937221,667.935213 366.729774,667.980954 L366.729774,667.980954 C366.314026,668.074154 365.909394,668.121098 365.515537,668.121098 L365.515537,668.121098 C364.914403,668.121098 364.451967,668.021707 364.128911,667.824129 L364.128911,667.824129 C363.805342,667.627067 363.562153,667.359847 363.40071,667.021953 L363.40071,667.021953 C363.238413,666.685606 363.146404,666.290279 363.123146,665.836314 L363.123146,665.836314 C363.099716,665.383209 363.088087,664.889178 363.088087,664.355082 L363.088087,664.355082 L363.088087,656.655907 C363.088087,656.401584 363.293481,656.195752 363.547103,656.195752 L363.547103,656.195752 L367.415562,656.195752 C367.669013,656.195752 367.874578,655.989233 367.874578,655.734221 L367.874578,655.734221 L367.874578,654.354615 C367.874578,654.099604 367.669013,653.893772 367.415562,653.893772 L367.415562,653.893772 L363.547103,653.893772 C363.293481,653.893772 363.088087,653.687253 363.088087,653.432929 L363.088087,653.432929 L363.088087,649.717296 C363.088087,649.462457 362.883206,649.255765 362.630439,649.255765 L362.630439,649.255765 M346.730421,653.736948 C346.152546,653.91114 345.631621,654.143109 345.17004,654.434059 L345.17004,654.434059 C344.707432,654.724837 344.308957,655.055853 343.973075,655.428139 L343.973075,655.428139 C343.63839,655.799909 343.377927,656.183887 343.193055,656.578527 L343.193055,656.578527 L343.122937,656.578527 C343.122937,656.114245 343.111992,655.660452 343.088733,655.218868 L343.088733,655.218868 C343.073513,654.926714 343.063251,654.634388 343.058463,654.342235 L343.058463,654.342235 C343.053674,654.092726 342.848109,653.893772 342.600131,653.893772 L342.600131,653.893772 L340.952359,653.893772 C340.695488,653.893772 340.487186,654.105279 340.493343,654.362869 L340.493343,654.362869 C340.503091,654.76903 340.524297,655.205799 340.557304,655.672145 L340.557304,655.672145 C340.603308,656.322828 340.626738,657.020111 340.626738,657.764854 L340.626738,657.764854 L340.626738,669.752448 C340.626738,670.0066 340.831448,670.212603 341.08507,670.212603 L341.08507,670.212603 L342.872907,670.212603 C343.126358,670.212603 343.331923,670.0066 343.331923,669.752448 L343.331923,669.752448 L343.331923,662.262373 C343.331923,661.332605 343.430088,660.484 343.62676,659.717247 L343.62676,659.717247 C343.823262,658.949633 344.123401,658.287085 344.528204,657.728915 L344.528204,657.728915 C344.932836,657.17212 345.453077,656.741714 346.088585,656.43907 L346.088585,656.43907 C346.724948,656.137115 347.482222,655.985793 348.360236,655.985793 L348.360236,655.985793 C349.632108,655.985793 350.56861,656.380949 351.16923,657.17212 L351.16923,657.17212 C351.770363,657.96226 352.070674,659.042834 352.070674,660.414358 L352.070674,660.414358 L352.070674,669.752448 C352.070674,670.0066 352.276239,670.212603 352.52969,670.212603 L352.52969,670.212603 L354.317527,670.212603 C354.571149,670.212603 354.77603,670.0066 354.77603,669.752448 L354.77603,669.752448 L354.77603,660.135273 C354.77603,659.158904 354.654948,658.258713 354.411758,657.432462 L354.411758,657.432462 C354.169253,656.608275 353.793352,655.904802 353.284911,655.323933 L353.284911,655.323933 C352.775787,654.742893 352.134635,654.288928 351.360259,653.963415 L351.360259,653.963415 C350.585883,653.638073 349.666482,653.475231 348.602742,653.475231 L348.602742,653.475231 C347.932174,653.475231 347.308296,653.562068 346.730421,653.736948 M316.542414,654.103043 C315.478674,654.521069 314.565601,655.108472 313.80217,655.863361 L313.80217,655.863361 C313.039424,656.619281 312.438119,657.52016 311.999112,658.566171 L311.999112,658.566171 C311.559421,659.612869 311.340175,660.77495 311.340175,662.053102 L311.340175,662.053102 C311.340175,663.331941 311.559421,664.494022 311.999112,665.540033 L311.999112,665.540033 C312.438119,666.586731 313.039424,667.486923 313.80217,668.242671 L313.80217,668.242671 C314.565601,668.998591 315.478674,669.585822 316.542414,670.003848 L316.542414,670.003848 C317.605984,670.421702 318.761733,670.631145 320.010346,670.631145 L320.010346,670.631145 C321.258788,670.631145 322.415221,670.421702 323.478278,670.003848 L323.478278,670.003848 C324.541848,669.585822 325.455092,668.998591 326.217667,668.242671 L326.217667,668.242671 C326.981098,667.486923 327.581718,666.586731 328.021409,665.540033 L328.021409,665.540033 C328.460587,664.494022 328.680347,663.331941 328.680347,662.053102 L328.680347,662.053102 C328.680347,660.77495 328.460587,659.612869 328.021409,658.566171 L328.021409,658.566171 C327.581718,657.52016 326.981098,656.619281 326.217667,655.863361 L326.217667,655.863361 C325.455092,655.108472 324.541848,654.521069 323.478278,654.103043 L323.478278,654.103043 C322.415221,653.685017 321.258788,653.475231 320.010346,653.475231 L320.010346,653.475231 C318.761733,653.475231 317.605984,653.685017 316.542414,654.103043 M317.634202,667.649938 C316.929944,667.336289 316.322483,666.905882 315.814043,666.359405 L315.814043,666.359405 C315.305602,665.813616 314.918072,665.173938 314.652137,664.442264 L314.652137,664.442264 C314.386201,663.709901 314.253661,662.913228 314.253661,662.053102 L314.253661,662.053102 C314.253661,661.192976 314.386201,660.39699 314.652137,659.6648 L314.652137,659.6648 C314.918072,658.932438 315.305602,658.292588 315.814043,657.746799 L315.814043,657.746799 C316.322483,657.200321 316.929944,656.770602 317.634202,656.456094 L317.634202,656.456094 C318.339144,656.142618 319.132161,655.985793 320.010346,655.985793 L320.010346,655.985793 C320.889215,655.985793 321.680693,656.142618 322.385635,656.456094 L322.385635,656.456094 C323.091261,656.770602 323.698038,657.200321 324.206479,657.746799 L324.206479,657.746799 C324.715091,658.292588 325.101937,658.932438 325.367872,659.6648 L325.367872,659.6648 C325.63432,660.39699 325.767031,661.192976 325.767031,662.053102 L325.767031,662.053102 C325.767031,662.913228 325.63432,663.709901 325.367872,664.442264 L325.367872,664.442264 C325.101937,665.173938 324.715091,665.813616 324.206479,666.359405 L324.206479,666.359405 C323.698038,666.905882 323.091261,667.336289 322.385635,667.649938 L322.385635,667.649938 C321.680693,667.963586 320.889215,668.121098 320.010346,668.121098 L320.010346,668.121098 C319.132161,668.121098 318.339144,667.963586 317.634202,667.649938 M333.004402,653.893772 C332.750951,653.893772 332.546241,654.099604 332.546241,654.354615 L332.546241,669.752448 C332.546241,670.0066 332.750951,670.212603 333.004402,670.212603 L334.792239,670.212603 C335.045861,670.212603 335.251255,670.0066 335.251255,669.752448 L335.251255,654.354615 C335.251255,654.099604 335.045861,653.893772 334.792239,653.893772 L333.004402,653.893772 Z M243.029432,659.144104 C243.55294,668.172671 251.174374,675.299959 260.230677,675.260551 C263.60013,675.245773 266.816733,674.271608 269.598932,672.43182 C270.058695,672.128104 270.162215,671.494685 269.830811,671.05406 L268.507625,669.2902 C268.199669,668.879981 267.629959,668.789104 267.198855,669.06734 C265.101003,670.421829 262.682862,671.133046 260.153211,671.133046 C252.643287,671.133046 246.597588,664.750098 247.170598,657.131735 C247.648599,650.774266 252.787799,645.64219 259.153092,645.165215 C266.781647,644.593455 273.172993,650.630562 273.172993,658.13087 C273.172993,660.695804 270.956509,661.410248 270.39201,661.410248 C268.298673,661.410248 267.530954,660.349453 266.79919,658.314322 C266.230001,656.730008 266.519198,653.236773 266.675347,651.768305 C266.719118,651.354519 266.495055,650.959587 266.114843,650.788365 C264.875029,650.233762 261.999036,649.153262 259.024212,649.491969 C256.822145,649.741498 252.102758,652.703232 252.102758,658.13087 C252.102758,663.409708 255.24641,666.715075 257.994045,667.162155 C260.266458,667.532117 262.639786,666.852664 264.348916,665.347337 C264.890661,664.870361 265.351119,664.327308 265.725425,663.730579 C267.288828,664.865944 268.534373,665.537753 270.39201,665.537753 C274.216014,665.537753 277.306864,661.985745 277.306864,657.416426 C277.306864,647.970845 269.611264,641 260.153211,641 C250.358542,641 242.455206,649.240402 243.029432,659.144104 Z M258.742831,663.088157 C257.907546,662.97282 256.890406,661.928671 256.58436,661.288626 C255.208545,658.407237 256.110355,656.406589 256.771948,655.469964 C257.514307,654.416132 258.645216,653.696592 259.724018,653.593995 C260.111525,653.556285 259.636824,653.540488 259.985945,653.540488 C260.857706,653.540488 261.730161,653.641047 262.375427,653.768444 C262.646386,653.821951 262.839706,654.05942 262.839706,654.335787 L262.839706,658.749342 C262.839706,660.173135 262.322798,661.558709 261.39233,662.250731 C260.626522,662.821981 260.175964,663.134529 259.350406,663.134529 C259.168724,663.134529 258.96811,663.119242 258.742831,663.088157 Z" id="point/logo"></path>
        </g>
    </g>
</svg>