<?xml version="1.0" encoding="UTF-8" standalone="no"?>
<svg width="111px" height="30px" viewBox="0 0 111 30" version="1.1" xmlns="http://www.w3.org/2000/svg" xmlns:xlink="http://www.w3.org/1999/xlink">
    <!-- Generator: Sketch 3.8.3 (29802) - http://www.bohemiancoding.com/sketch -->
    <title>gather/logo</title>
    <desc>Created with Sketch.</desc>
    <defs></defs>
    <g id="mocks" stroke="none" stroke-width="1" fill="none" fill-rule="evenodd">
        <g id="Artboard-9" transform="translate(-813.000000, -643.000000)" fill="#FFFFFF">
            <path d="M813,650.050507 C813,645.35038 816.565461,643 819.928936,643 C823.291778,643 826.857239,645.35038 826.857239,650.050507 L826.857239,650.524762 C826.857239,651.068034 826.417175,651.508731 825.873903,651.508731 L823.708413,651.508731 C823.18287,651.518228 822.739008,651.076266 822.724445,650.524762 L822.724445,650.050507 C822.724445,648.064208 821.428316,647.132794 819.928936,647.132794 C818.429555,647.132794 817.132794,648.064208 817.132794,650.050507 L817.132794,665.285555 C817.132794,667.270588 818.429555,668.202002 819.928936,668.202002 C821.428316,668.202002 822.724445,667.270588 822.724445,665.285555 L822.724445,660.838701 C822.707982,660.280233 822.272984,659.845235 821.741109,659.855366 L820.425986,659.855366 C819.882713,659.855366 819.44265,659.415303 819.44265,658.872031 L819.44265,657.192193 C819.44265,656.649554 819.882713,656.208858 820.425986,656.208858 L824.44354,656.208858 C825.777026,656.208858 826.857239,657.289703 826.857239,658.622556 L826.857239,665.285555 C826.857239,669.985049 823.291778,672.335429 819.928936,672.335429 C816.565461,672.335429 813,669.985049 813,665.285555 L813,650.050507 Z M838.224163,643.242826 L840.640394,643.242826 C841.12668,643.242826 841.547748,643.580313 841.653489,644.054568 L847.72446,671.242236 C847.821971,671.6785 847.490182,672.092603 847.043787,672.092603 L844.35592,672.092603 C844.022232,672.092603 843.735399,671.856425 843.671448,671.529069 L842.68558,666.503485 C842.612764,666.133072 842.327197,665.840541 841.958684,665.759493 L837.402923,664.966113 C837.166745,664.92559 836.941965,665.083252 836.900808,665.31943 L836.192275,669.38574 C835.918739,670.950971 834.559292,672.092603 832.971266,672.092603 L832.456487,672.092603 C832.009459,672.092603 831.677671,671.6785 831.775181,671.242236 L837.985453,643.434048 C838.010147,643.322607 838.109557,643.242826 838.224163,643.242826 Z M839.606405,652.047254 L837.852484,661.029607 C837.825257,661.168907 837.917069,661.303142 838.057003,661.328469 L841.701611,661.980649 C841.745934,661.991413 841.786458,661.952156 841.777593,661.907833 L839.853346,652.047254 C839.826753,651.911753 839.632998,651.911753 839.606405,652.047254 Z M854.546135,647.133047 L850.555807,647.133047 C850.308232,647.133047 850.10688,646.932328 850.10688,646.68412 L850.10688,644.226098 C850.10688,643.683459 850.547576,643.242763 851.090848,643.242763 L862.824387,643.242763 C863.364493,643.242763 863.802656,643.680926 863.802656,644.221033 L863.802656,646.695517 C863.802656,646.937393 863.606369,647.133047 863.365126,647.133047 L859.347572,647.133047 C859.167114,647.133047 859.021482,647.279313 859.021482,647.459137 L859.021482,671.108571 C859.021482,671.651843 858.580785,672.092539 858.037513,672.092539 L855.872023,672.092539 C855.328751,672.092539 854.888688,671.651843 854.888688,671.108571 L854.888688,647.4756 C854.888688,647.286278 854.735457,647.133047 854.546135,647.133047 Z M869.452117,643.242889 L872.287516,643.242889 C872.830788,643.242889 873.270851,643.682953 873.270851,644.226225 L873.270851,655.093567 C873.270851,655.374068 873.498164,655.600748 873.778032,655.600748 L877.803184,655.600748 C878.119777,655.600748 878.376216,655.344308 878.376216,655.028349 L878.376216,644.226225 C878.376216,643.682953 878.816279,643.242889 879.359551,643.242889 L882.220278,643.242889 C882.379841,643.242889 882.50901,643.372059 882.50901,643.532255 L882.50901,671.83496 C882.50901,671.977426 882.393771,672.092033 882.251937,672.092033 L879.359551,672.092033 C878.816279,672.092033 878.376216,671.65197 878.376216,671.108698 L878.376216,659.780397 C878.376216,659.4866 878.138139,659.247889 877.844341,659.247889 L873.769167,659.247889 C873.493732,659.247889 873.270851,659.471403 873.270851,659.746205 L873.270851,671.108698 C873.270851,671.65197 872.830788,672.092033 872.287516,672.092033 L869.378034,672.092033 C869.245699,672.092033 869.137424,671.984391 869.137424,671.852056 L869.137424,643.557582 C869.137424,643.383456 869.278624,643.242889 869.452117,643.242889 Z M890.286223,643.242889 L901.116207,643.242889 C901.65948,643.242889 902.100176,643.682953 902.100176,644.226225 L902.100176,645.548314 C902.100176,646.423374 901.390376,647.133174 900.515316,647.133174 L894.239193,647.133174 C894.060002,647.133174 893.915002,647.278173 893.915002,647.456731 L893.915002,654.707325 C893.915002,655.201208 894.315175,655.600748 894.809059,655.600748 L900.062589,655.600748 C900.605861,655.600748 901.046557,656.041444 901.046557,656.584716 L901.046557,658.507697 C901.046557,659.050969 900.605861,659.491032 900.062589,659.491032 L894.709015,659.491032 C894.270852,659.491032 893.915002,659.846882 893.915002,660.285045 L893.915002,667.52994 C893.915002,667.767384 894.10749,667.959239 894.344301,667.959239 L901.116207,667.959239 C901.65948,667.959239 902.100176,668.399302 902.100176,668.942574 L902.100176,671.108698 C902.100176,671.65197 901.65948,672.092033 901.116207,672.092033 L890.174783,672.092033 C889.958234,672.092033 889.782208,671.916641 889.782208,671.699459 L889.782208,643.746904 C889.782208,643.468303 890.007622,643.242889 890.286223,643.242889 Z M908.593671,643.997772 C908.593671,643.581137 908.931791,643.243016 909.348427,643.243016 L915.238307,643.243016 C920.14042,643.243016 922.530691,646.119572 922.530691,651.711856 C922.530691,654.847385 921.701852,657.189534 919.393896,658.668652 C919.15012,658.825049 919.03298,659.119479 919.125425,659.394281 L923.210731,671.485569 C923.353197,671.907903 923.039138,672.3448 922.594009,672.3448 L922.117221,672.3448 C920.336707,672.3448 918.763244,671.187972 918.232636,669.488506 L915.406734,660.441568 C915.283263,660.045195 914.916016,659.774825 914.500014,659.774825 L913.390042,659.774825 C913.023428,659.774825 912.725832,660.072422 912.725832,660.439036 L912.725832,671.142383 C912.725832,671.667293 912.300332,672.092159 911.776055,672.092159 L909.543447,672.092159 C909.019171,672.092159 908.593671,671.667293 908.593671,671.142383 L908.593671,643.997772 Z M912.725832,655.526158 C912.725832,655.85858 912.994935,656.127684 913.327357,656.127684 L914.116304,656.127684 C917.445587,656.127684 918.397897,654.437081 918.397897,651.833428 C918.397897,648.785912 917.981895,647.132667 914.873593,647.132667 L913.327357,647.132667 C912.994935,647.132667 912.725832,647.401771 912.725832,647.734192 L912.725832,655.526158 Z" id="gather/logo"></path>
        </g>
    </g>
</svg>