<?xml version="1.0" encoding="UTF-8" standalone="no"?>
<svg width="161px" height="31px" viewBox="0 0 161 31" version="1.1" xmlns="http://www.w3.org/2000/svg" xmlns:xlink="http://www.w3.org/1999/xlink">
    <!-- Generator: Sketch 3.8.3 (29802) - http://www.bohemiancoding.com/sketch -->
    <title>venmo/logo</title>
    <desc>Created with Sketch.</desc>
    <defs></defs>
    <g id="mocks" stroke="none" stroke-width="1" fill="none" fill-rule="evenodd">
        <g id="Artboard-9" transform="translate(-1912.000000, -643.000000)" fill="#FFFFFF">
            <path d="M1938.41263,643 C1939.49757,644.796604 1939.9867,646.647108 1939.9867,648.984676 C1939.9867,656.440315 1933.6389,666.125721 1928.4869,672.92673 L1916.71942,672.92673 L1912,644.632387 L1922.30372,643.651559 L1924.79894,663.784802 C1927.13038,659.97655 1930.00749,653.991874 1930.00749,649.911604 C1930.00749,647.678207 1929.62588,646.156973 1929.02951,644.904405 L1938.41263,643 Z M1951.54946,660.846505 C1951.54946,664.167973 1953.39148,665.47109 1955.8335,665.47109 C1958.49279,665.47109 1961.03898,664.819532 1964.3484,663.133243 L1963.1019,671.619982 C1960.77019,672.762234 1957.13627,673.524387 1953.60903,673.524387 C1944.66183,673.524387 1941.45966,668.084027 1941.45966,661.282739 C1941.45966,652.467568 1946.66848,643.107523 1957.40729,643.107523 C1963.31972,643.107523 1966.6258,646.428712 1966.6258,651.053297 C1966.62635,658.508658 1957.08279,660.792604 1951.54946,660.846505 Z M1951.76672,655.459207 C1953.66279,655.459207 1958.43624,654.589532 1958.43624,651.869351 C1958.43624,650.563162 1957.51509,649.911604 1956.42959,649.911604 C1954.53046,649.911604 1952.0383,652.194991 1951.76672,655.459207 Z M1996.36094,649.639586 C1996.36094,650.727658 1996.19631,652.305865 1996.03253,653.337243 L1992.94066,672.92645 L1982.90769,672.92645 L1985.72797,654.969351 C1985.78145,654.482288 1985.9458,653.501739 1985.9458,652.957703 C1985.9458,651.651514 1985.13188,651.325595 1984.15335,651.325595 C1982.85365,651.325595 1981.55089,651.923532 1980.68321,652.360045 L1977.48438,672.92673 L1967.39486,672.92673 L1972.00425,643.598216 L1980.73669,643.598216 L1980.84728,645.939135 C1982.90741,644.579045 1985.62017,643.108081 1989.46913,643.108081 C1994.56849,643.107523 1996.36094,645.72018 1996.36094,649.639586 Z M2026.14594,646.318117 C2029.01942,644.252568 2031.73275,643.107523 2035.47391,643.107523 C2040.62563,643.107523 2042.41752,645.72018 2042.41752,649.639586 C2042.41752,650.727658 2042.25346,652.305865 2042.08967,653.337243 L2039.00142,672.92645 L2028.96566,672.92645 L2031.83971,654.589811 C2031.89263,654.099676 2032.00377,653.501739 2032.00377,653.122477 C2032.00377,651.651793 2031.18958,651.325595 2030.21133,651.325595 C2028.96511,651.325595 2027.71945,651.869631 2026.79467,652.360045 L2023.5964,672.92673 L2013.56315,672.92673 L2016.43719,654.59009 C2016.49011,654.099955 2016.59791,653.502018 2016.59791,653.122757 C2016.59791,651.652072 2015.78344,651.325874 2014.80853,651.325874 C2013.50604,651.325874 2012.20607,651.923811 2011.33839,652.360324 L2008.13706,672.927009 L1998.05088,672.927009 L2002.65971,643.598495 L2011.28547,643.598495 L2011.55649,646.046937 C2013.56315,644.579604 2016.27368,643.10864 2019.90733,643.10864 C2023.05351,643.107523 2025.11336,644.467892 2026.14594,646.318117 Z M2045.03057,661.010721 C2045.03057,651.761829 2049.91071,643.107523 2061.13892,643.107523 C2069.5995,643.107523 2072.69221,648.114721 2072.69221,655.026045 C2072.69221,664.167694 2067.86471,673.634703 2056.36575,673.634703 C2047.85057,673.634703 2045.03057,668.029568 2045.03057,661.010721 Z M2062.38486,654.861829 C2062.38486,652.467568 2061.78766,650.83518 2059.99939,650.83518 C2056.03985,650.83518 2055.22677,657.853748 2055.22677,661.444162 C2055.22677,664.167973 2055.98692,665.853703 2057.77464,665.853703 C2061.51719,665.853703 2062.38486,658.451964 2062.38486,654.861829 Z" id="venmo/logo"></path>
        </g>
    </g>
</svg>