<?xml version="1.0" encoding="UTF-8" standalone="no"?>
<svg width="121px" height="29px" viewBox="0 0 121 29" version="1.1" xmlns="http://www.w3.org/2000/svg" xmlns:xlink="http://www.w3.org/1999/xlink">
    <!-- Generator: Sketch 3.8.3 (29802) - http://www.bohemiancoding.com/sketch -->
    <title>bench/logo</title>
    <desc>Created with Sketch.</desc>
    <defs></defs>
    <g id="mocks" stroke="none" stroke-width="1" fill="none" fill-rule="evenodd">
        <g id="Artboard-9" transform="translate(-1370.000000, -644.000000)" fill="#FFFFFF">
            <path d="M1480.963,663.879 C1475.483,663.879 1471.023,659.42 1471.023,653.94 L1471.023,644 L1490.902,644 L1490.902,653.939 C1490.902,659.42 1486.443,663.879 1480.963,663.879 L1480.963,663.879 Z M1472.831,645.807 L1472.831,653.939 C1472.831,658.422 1476.477,662.071 1480.963,662.071 C1485.446,662.071 1489.095,658.423 1489.095,653.939 L1489.095,645.807 L1472.831,645.807 Z M1485.479,650.024 L1476.444,650.024 L1476.444,651.831 L1477.679,651.831 L1477.054,656.839 L1478.875,656.839 L1479.501,651.831 L1482.424,651.831 L1483.05,656.839 L1484.871,656.839 L1484.245,651.831 L1485.479,651.831 L1485.479,650.024 Z M1380.842,646.529 C1386.263,646.529 1389.155,649.059 1389.155,652.673 C1389.155,655.566 1386.987,657.735 1384.095,658.528 L1384.095,658.6 C1388.613,659.72 1390.239,662.359 1390.239,665.141 C1390.239,669.118 1387.348,671.828 1381.927,671.828 L1370,671.828 L1370,671.106 C1372.168,671.106 1372.168,671.106 1372.168,668.755 L1372.168,649.602 C1372.168,647.252 1372.168,647.252 1370,647.252 L1370,646.529 L1380.842,646.529 Z M1378.674,658.456 C1381.927,658.456 1383.192,656.288 1383.192,652.854 C1383.192,649.782 1381.927,647.251 1379.758,647.251 L1377.951,647.251 L1377.951,658.456 L1378.674,658.456 Z M1377.951,659.179 L1377.951,671.107 L1380.481,671.107 C1383.372,671.107 1384.276,668.214 1384.276,664.962 C1384.276,661.709 1382.649,659.179 1379.397,659.179 L1377.951,659.179 Z M1391.902,662.974 C1391.902,656.83 1396.962,653.398 1401.48,653.398 C1405.636,653.398 1409.395,655.205 1408.31,661.348 L1397.613,661.348 C1397.613,666.227 1400.396,668.034 1403.106,668.034 C1406.359,668.034 1407.805,666.227 1408.527,664.963 L1408.888,664.963 C1408.166,668.577 1405.636,672.191 1401.118,672.191 C1395.155,672.19 1391.902,667.853 1391.902,662.974 Z M1397.613,660.624 L1402.925,660.624 C1403.54,658.168 1404.046,654.119 1401.299,654.119 C1399.239,654.119 1397.757,656.035 1397.613,660.624 Z M1423.707,658.456 C1423.707,656.83 1422.623,656.288 1421.539,656.288 C1420.418,656.288 1419.189,656.83 1417.925,657.915 L1417.925,668.756 C1417.925,671.107 1417.925,671.107 1420.093,671.107 L1420.093,671.829 L1409.973,671.829 L1409.973,671.107 C1412.141,671.107 1412.141,671.107 1412.141,668.756 L1412.141,657.372 C1412.141,655.565 1412.141,655.565 1410.334,655.565 L1410.334,655.022 L1417.744,653.397 L1418.033,653.397 L1417.925,657.191 L1417.998,657.191 C1419.371,654.841 1421.973,653.397 1424.612,653.397 C1427.033,653.397 1429.491,654.841 1429.491,658.816 L1429.491,668.755 C1429.491,671.106 1429.491,671.106 1431.659,671.106 L1431.659,671.828 L1422.263,671.828 L1422.263,671.106 C1423.708,671.106 1423.708,671.106 1423.708,668.755 L1423.708,658.456 L1423.707,658.456 Z M1442.971,668.033 C1446.224,668.033 1447.67,666.226 1448.393,664.962 L1448.754,664.962 C1448.031,668.576 1445.501,672.19 1440.983,672.19 C1435.02,672.19 1431.767,667.853 1431.767,662.974 C1431.767,656.83 1436.827,653.398 1441.345,653.398 C1445.862,653.398 1448.247,655.602 1448.247,657.916 C1448.247,659.18 1447.669,660.445 1445.5,660.445 C1443.693,660.445 1443.295,659.325 1443.332,658.565 C1443.512,655.927 1443.332,654.12 1441.163,654.12 C1438.633,654.12 1437.477,657.481 1437.477,661.674 C1437.478,666.406 1440.262,668.033 1442.971,668.033 Z M1462.778,658.456 C1462.778,656.83 1461.694,656.288 1460.61,656.288 C1459.489,656.288 1458.26,656.83 1456.995,657.915 L1456.995,668.756 C1456.995,671.107 1456.995,671.107 1459.163,671.107 L1459.163,671.829 L1449.043,671.829 L1449.043,671.107 C1451.211,671.107 1451.211,671.107 1451.211,668.756 L1451.211,647.976 C1451.211,646.169 1451.211,646.169 1449.404,646.169 L1449.404,645.626 L1456.705,644 L1456.994,644 L1456.994,657.191 L1457.066,657.191 C1458.439,654.841 1461.042,653.397 1463.68,653.397 C1466.102,653.397 1468.559,654.841 1468.559,658.816 L1468.559,668.755 C1468.559,671.106 1468.559,671.106 1470.727,671.106 L1470.727,671.828 L1461.33,671.828 L1461.33,671.106 C1462.776,671.106 1462.776,671.106 1462.776,668.755 L1462.776,658.456 L1462.778,658.456 Z" id="bench/logo"></path>
        </g>
    </g>
</svg>